<?xml version="1.0" encoding="utf-8"?>
<!DOCTYPE svg PUBLIC "-//W3C//DTD SVG 1.1//EN" "http://www.w3.org/Graphics/SVG/1.1/DTD/svg11.dtd">
<svg style="width:308px;height:308px;" version="1.1" id="图形" xmlns="http://www.w3.org/2000/svg" xmlns:xlink="http://www.w3.org/1999/xlink" x="0px" y="0px" width="1024px" height="1024px" viewBox="0 0 1024 1024" enable-background="new 0 0 1024 1024" xml:space="preserve">
  <path class="svgpath" data-index="path_0" fill="#BEB9B6" d="M978.589692 774.997098C977.691398 774.09033 976.7931 773.225931 975.852433 772.386955L755.354866 575.092523C741.397393 562.635035 719.965426 563.804512 707.474039 577.761985 694.991127 591.710986 696.194503 613.14295 710.151975 625.634341L930.649543 822.937248C956.327227 848.606454 956.327227 890.207691 930.649543 915.876901 917.802226 928.732688 900.971905 935.139398 884.150055 935.139398 867.328209 935.139398 850.497884 928.732688 837.675991 915.876901L640.373084 695.370858C627.890172 681.413386 606.458204 680.252379 592.500732 692.735295 578.585633 705.218208 577.382253 726.616277 589.865169 740.573749L787.134177 961.079792C788.007047 962.011984 788.837548 962.944176 789.735842 963.81705 814.938956 989.054058 848.489431 1002.943734 884.150055 1002.943734 919.836103 1002.943734 953.352684 989.054058 978.589692 963.81705 1030.639964 911.766774 1030.639964 827.038896 978.589692 774.997098" />
<path class="svgpath" data-index="path_1" fill="#BEB9B6" d="M986.24215 85.106405C966.10678 64.945611 939.30199 53.82709 910.785356 53.82709 894.83638 53.82709 879.073841 57.428745 864.751964 64.242229 806.261084 84.708105 670.321906 134.648232 571.941638 189.300171 561.840054 194.910278 552.552022 200.520386 543.62839 206.122019 540.043682 200.444116 535.645426 195.257732 530.442093 190.800155L350.36781 36.767956C337.647612 25.88672 321.961344 20.48 306.3005 20.48 288.902387 20.48 271.546646 27.149418 258.360351 40.335713L226.742056 71.954008C217.326906 81.369158 211.259176 92.919878 208.513443 105.072287 196.361035 107.775647 184.81879 113.877275 175.403639 123.267002L156.675032 142.029506 137.937951 160.758113C128.565173 170.139365 122.455071 181.656188 119.751711 193.808596 107.599303 196.503482 96.074006 202.58816 86.658856 212.00331L54.947341 243.714825C29.913719 268.790819 28.371363 308.917495 51.472803 335.823978L251.614663 568.982422C251.979066 569.380725 252.351943 569.812922 252.750243 570.219696 255.10615 572.829835 274.317802 593.685541 305.105598 615.303946L99.718034 820.699984C79.548765 840.82688 68.472616 867.640144 68.472616 896.148304 68.472616 924.656464 79.591137 951.461253 99.718034 971.630522 119.878828 991.791317 146.692092 1002.875941 175.200252 1002.875941 203.708412 1002.875941 230.521675 991.791317 250.648572 971.630522L986.267574 236.003045C1027.834913 194.410284 1027.834913 126.707642 986.24215 85.106405L986.24215 85.106405ZM306.3005 88.275862 486.374785 242.316535C465.544507 261.64683 448.485372 280.773738 435.663479 296.527802L274.682205 119.894157 306.3005 88.275862 306.3005 88.275862ZM303.063248 524.813418 102.921388 291.654974 134.599005 259.943459 316.486828 425.865357 341.588246 400.755465 185.8781 208.698262 204.615182 189.969655 223.343788 171.20715 412.824748 324.171564 419.206034 317.798753C411.824759 327.874913 407.985819 334.018913 407.985819 334.018913L407.985819 512.423723 353.97794 566.440075C322.613879 546.389451 303.063248 524.813418 303.063248 524.813418L303.063248 524.813418ZM938.302001 188.096795 202.708423 923.690373C195.132235 931.26656 185.149295 935.071605 175.200252 935.071605 165.217311 935.071605 155.268268 931.26656 147.658183 923.690373 132.47191 908.461728 132.47191 883.826405 147.658183 868.640133L391.223292 625.075024C395.596125 622.363189 399.748622 619.185258 403.511292 615.414112L455.925969 563.024859C459.671687 559.287615 462.866567 555.11817 465.603826 550.686015L475.790156 540.499685 475.790156 359.45931C475.790156 359.45931 504.467804 304.341275 604.856529 248.553755 703.609676 193.706902 847.464022 142.063404 891.488956 126.733065 897.471943 123.334797 904.115937 121.631426 910.785356 121.631426 920.742871 121.631426 930.71734 125.436469 938.302001 133.046555 953.522172 148.232828 953.522172 172.876623 938.302001 188.096795L938.302001 188.096795Z" />

</svg>
