<?xml version="1.0" encoding="utf-8"?>
<!DOCTYPE svg PUBLIC "-//W3C//DTD SVG 1.1//EN" "http://www.w3.org/Graphics/SVG/1.1/DTD/svg11.dtd">
<svg style="width:308px;height:308px;" version="1.1" id="图形" xmlns="http://www.w3.org/2000/svg" xmlns:xlink="http://www.w3.org/1999/xlink" x="0px" y="0px" width="1024px" height="1024px" viewBox="0 0 1024 1024" enable-background="new 0 0 1024 1024" xml:space="preserve">
  <path class="svgpath" data-index="path_0" fill="#BEB9B6" d="M706.547905 607.927793c-11.900028 0-22.367427 5.833869-28.940123 14.72026-39.160905 50.453089-98.644671 82.96148-165.639504 82.96148-66.073858 0-124.855636-31.604812-164.035984-80.869842-6.453992-10.012028-17.646915-16.677844-30.446429-16.677844-20.029172 0-36.264948 16.235776-36.264948 36.264948 0 9.694803 3.858888 18.451234 10.05603 24.958438 49.260937 68.883857 129.533169 114.013707 220.691331 114.013707 92.312452 0 173.594687-46.169529 222.676545-116.533087l-0.306992 0c5.103228-6.224772 8.29185-14.078647 8.29185-22.754237C742.629681 624.083751 726.475769 607.927793 706.547905 607.927793zM667.345044 356.011296c-42.906206 0-77.688383 34.780131-77.688383 77.688383 0 42.906206 34.783201 77.688383 77.688383 77.688383 42.906206 0 77.688383-34.782178 77.688383-77.688383C745.034451 390.792451 710.25125 356.011296 667.345044 356.011296zM511.968278 64.679092c-246.711961 0-446.708971 199.99701-446.708971 446.708971 0 246.711961 199.99701 446.708971 446.708971 446.708971 246.711961 0 446.708971-199.998033 446.708971-446.708971C958.678272 264.676102 758.680239 64.679092 511.968278 64.679092zM511.968278 880.409674c-203.804732 0-369.020588-165.215856-369.020588-369.020588s165.215856-369.020588 369.020588-369.020588S880.988866 307.585377 880.988866 511.389086 715.77301 880.409674 511.968278 880.409674zM356.591511 511.389086c42.906206 0 77.688383-34.782178 77.688383-77.688383 0-42.907229-34.783201-77.688383-77.688383-77.688383s-77.688383 34.780131-77.688383 77.688383C278.903128 476.606909 313.685305 511.389086 356.591511 511.389086z" />

</svg>
