<?xml version="1.0" encoding="utf-8"?>
<!DOCTYPE svg PUBLIC "-//W3C//DTD SVG 1.1//EN" "http://www.w3.org/Graphics/SVG/1.1/DTD/svg11.dtd">
<svg style="width:308px;height:308px;" version="1.1" id="图形" xmlns="http://www.w3.org/2000/svg" xmlns:xlink="http://www.w3.org/1999/xlink" x="0px" y="0px" width="1024px" height="1024px" viewBox="0 0 1024 1024" enable-background="new 0 0 1024 1024" xml:space="preserve">
  <path class="svgpath" data-index="path_0" fill="#BEB9B6" d="M909.02592 176.184675 116.693234 176.184675 65.574996 176.184675l0 51.118238 0 562.300616 0 51.118238 51.118238 0 792.332686 0 51.118238 0 0-51.118238 0-51.118238 0-51.118238L960.144158 227.302913l0-51.118238L909.02592 176.184675zM909.02592 789.603529 116.693234 789.603529l0-51.118238 792.332686 0L909.02592 789.603529zM909.02592 687.367053 116.693234 687.367053 116.693234 227.302913l792.332686 0L909.02592 687.367053z" />
<path class="svgpath" data-index="path_1" fill="#BEB9B6" d="M415.230538 317.151243 280.198122 607.328136l-33.546024 0-32.69975-290.176892 40.255843 0 19.961634 219.729423 3.354398 0 97.450473-219.729423L415.230538 317.151243z" />
<path class="svgpath" data-index="path_2" fill="#BEB9B6" d="M498.841817 603.973738l-38.578644 0 50.574862-286.822494 38.57762 0L498.841817 603.973738z" />
<path class="svgpath" data-index="path_3" fill="#BEB9B6" d="M822.538127 404.372747c-4.732791 26.837228-16.316617 48.092321-34.722826 63.73765-18.435884 15.671934-41.617863 23.482831-69.556169 23.482831l-48.641837 0-19.815301 112.38051-38.578644 0 50.573839-286.822494 87.220481 0c27.939329 0 48.362474 7.836479 61.275575 23.482831C823.17667 356.307032 827.269895 377.534496 822.538127 404.372747zM783.95846 404.372747c3.742231-21.22951 1.276063-35.774785-7.405667-43.611264-8.686846-7.809873-23.089881-11.741415-43.218314-11.741415L694.756859 349.020068l-19.519566 110.703311 38.57762 0c20.128433 0 35.912931-3.904936 47.358611-11.741415C772.615111 440.172091 780.21009 425.62784 783.95846 404.372747z" />

</svg>
