<?xml version="1.0" encoding="utf-8"?>
<!DOCTYPE svg PUBLIC "-//W3C//DTD SVG 1.1//EN" "http://www.w3.org/Graphics/SVG/1.1/DTD/svg11.dtd">
<svg style="width:308px;height:308px;" version="1.1" id="图形" xmlns="http://www.w3.org/2000/svg" xmlns:xlink="http://www.w3.org/1999/xlink" x="0px" y="0px" width="1073px" height="1024px" viewBox="0 0 1073 1024" enable-background="new 0 0 1073 1024" xml:space="preserve">
  <path class="svgpath" data-index="path_0" fill="#BEB9B6" d="M633.65215 1003.802925l-305.553289-61.668771L327.850197 942.161783l-0.082888-0.027629L78.798985 986.645081 87.308834 638.708327l114.800065-14.781717 7.073121 54.789056-67.802493 8.730883-5.691652 232.888025 164.72635-29.452917 0-11.770115 28.458259 6.603421 27.021531-5.083806 0.055259 10.692569L635.033619 947.687659l237.087691-35.97345 5.746911-234.683935-59.900491 10.499164-9.532135-54.429874 126.349145-22.131132-8.537478 348.406454L633.65215 1003.802925zM520.344072 874.525066l-50.451244-39.97971c-0.386811-0.303923-51.031461-40.256003-101.040635-100.598565-0.939399-0.856511-3.702337-4.033889-6.548163-8.040149-56.529707-73.107334-154.08904-213.630349-175.41892-336.746857-3.895742-26.441315-4.00626-43.239976-4.00626-45.063515-0.690734-90.12703 35.310345-174.783444 101.399817-238.165237 63.437051-60.867519 147.154066-94.381955 235.706222-94.381955 88.911338 0 172.794129 33.514435 236.25881 94.381955 65.73029 63.05024 101.565593 147.236954 100.874858 237.060062 0 2.818197-0.193406 19.202418-4.033889 45.643732-20.058928 116.236792-106.56651 247.393449-175.639955 337.106039-1.961686 2.956343-5.028547 6.492904-7.404673 9.034807-49.29081 59.48605-99.272354 99.299984-99.769683 99.659166L520.344072 874.525066zM520.040149 66.835465c-74.240138 0-144.363499 28.071448-197.439534 78.992391C267.562895 198.599968 237.58502 268.916734 238.165237 343.902865c0 0.359182 0.027629 14.339647 3.315525 36.553667 19.202418 110.904322 111.567428 243.193783 164.919756 312.129081l0.745993 1.022287c1.022287 1.464357 2.044574 2.68005 2.873455 3.53656 47.52253 57.220441 93.663591 93.69122 94.105661 94.050402l16.025039 12.681884 15.831633-12.709514c0.663105-0.524958 46.831795-37.631213 92.696563-92.917598 1.934056-2.127462 3.011602-3.343155 4.033889-4.86277 66.255248-86.120771 147.844801-209.043872 165.859155-313.400032 3.315525-22.821866 3.343155-36.581296 3.343155-37.161513 0.580217-74.682208-29.231882-144.556905-83.882791-196.969834C664.928606 94.906913 594.61184 66.835465 520.040149 66.835465zM520.040149 489.703092c-57.911176 0-104.991636-45.450326-104.991636-101.316928 0-55.866602 47.108089-101.316928 104.991636-101.316928s105.019265 45.450326 105.019265 101.316928C625.059414 444.252766 577.951325 489.703092 520.040149 489.703092zM520.040149 342.300362c-27.435972 0-49.73288 20.666775-49.73288 46.058173 0 25.391398 22.324537 46.058173 49.73288 46.058173 27.435972 0 49.760509-20.666775 49.760509-46.058173C569.800658 362.967136 547.476121 342.300362 520.040149 342.300362z" />

</svg>
